<svg width="806.7mm" height="191.8mm" version="1.1" viewBox="0 0 806.7 191.8" xmlns="http://www.w3.org/2000/svg">
 <g transform="translate(3.651 -27.28)">
  <path d="m96.72 216.3c-3.172-3.196-5.97-5.142-10.74-7.473-6.226-3.04-13.08-5.075-26.07-7.737-12.4-2.54-15.82-3.53-20.83-6.022-11.77-5.852-19.74-16.33-22.55-29.65-0.3316-1.572-0.7175-4.082-0.8576-5.579-0.1401-1.497-0.2688-26.46-0.2859-55.47-0.03021-51.06 0.5837-44.44 0.05018-46.52-2.886-8.231-14.84-24.84-19.08-30.51 66.77-0.1484 140.7-0.09673 207.1 0l-6.176 8.249c-3.397 4.537-6.571 9.031-7.053 9.986-0.4822 0.9553-5.869 7.294-6.173 8.481-0.5346 2.09-0.2366-0.7676-0.2658 50.32-0.0174 30.52-0.1439 53.95-0.3 55.61-0.3174 3.37-1.439 8.604-2.453 11.45-4.094 11.49-13.03 20.73-24.36 25.21-3.352 1.324-8.333 2.599-17.41 4.455-20.36 4.164-29.63 8.005-37.09 15.37-1.494 1.475-2.72 2.659-2.723 2.631-0.0032-0.028-1.231-1.285-2.727-2.793z" fill="#fff"/>
  <rect x="49.89" y="62.62" width="98.63" height="102.2" fill="#fff" stroke-linecap="round" stroke-linejoin="round" stroke-width="1.3" style="paint-order:markers stroke fill"/>
  <path d="m96.94 209.2c-2.93-2.952-5.514-4.749-9.922-6.902-5.75-2.808-12.08-4.687-24.08-7.145-11.45-2.346-14.61-3.26-19.24-5.561-10.87-5.404-18.23-15.08-20.83-27.38-0.3062-1.452-0.6626-3.77-0.792-5.153s-0.2482-24.44-0.264-51.23c-0.0279-47.16-0.0451-48.78-0.5378-50.71-2.666-7.602-9.611-15.2-13.54-20.44 61.66-0.137 122.3-0.08933 183.7 0l-5.704 7.618c-3.137 4.19-6.068 8.34-6.513 9.222-0.4454 0.8822-1.039 2.501-1.319 3.597-0.4937 1.93-0.5106 3.526-0.5376 50.71-0.0161 28.19-0.1329 49.83-0.2771 51.36-0.2932 3.112-1.329 7.946-2.265 10.57-3.781 10.61-12.03 19.14-22.5 23.28-3.095 1.223-7.696 2.401-16.08 4.114-18.81 3.845-27.37 7.393-34.26 14.19-1.38 1.362-2.512 2.456-2.515 2.43-3e-3 -0.0259-1.136-1.187-2.519-2.58zm26.06-51.11c3.009-0.3687 6.405-1.347 8.455-2.435 2.373-1.259 4.638-3.619 5.764-6.003 1.622-3.436 1.656-3.763 1.656-15.88 0-10.81-0.01-11.01-0.6123-12.7-2.041-5.732-6.924-9.263-15.92-11.52-1.382-0.346-7.038-1.404-12.57-2.35-5.53-0.9466-13.26-2.269-17.17-2.938s-7.498-1.375-7.959-1.567-1.097-0.6788-1.413-1.08c-0.5512-0.7008-0.5736-0.9702-0.5736-6.911 0-5.829 0.0302-6.212 0.5292-6.711 0.517-0.517 0.8819-0.5292 15.89-0.5292h15.36l0.6494 0.6494c0.6018 0.6018 0.6494 0.841 0.6494 3.261v2.612l9.723 1.645c5.348 0.9049 10.17 1.715 10.72 1.801l0.9922 0.1554v-5.867c0-6.813-0.311-8.906-1.772-11.93-2.337-4.836-7.165-7.606-14.73-8.449-3.3-0.368-40.43-0.3766-43.69-0.01017-9.791 1.1-15.09 5.538-16.27 13.64-0.205 1.402-0.276 5.209-0.2122 11.36 0.0919 8.858 0.1222 9.33 0.7054 10.98 1.462 4.127 3.926 6.714 8.634 9.065 4.186 2.091 6.277 2.569 25.66 5.869 17.79 3.029 18.71 3.202 19.67 3.697 1.709 0.8835 1.762 1.138 1.762 8.434v6.583l-0.6246 0.5058c-0.6 0.4858-1.271 0.5058-17.01 0.5058h-16.39l-0.6494-0.6494c-0.6098-0.6098-0.6494-0.8249-0.6494-3.523v-2.873l-10.25-1.791c-5.639-0.9848-10.47-1.852-10.74-1.927-0.4686-0.1311-0.4837 0.1551-0.3667 6.967 0.0935 5.446 0.2207 7.44 0.5452 8.547 1.138 3.88 3.55 7.011 6.793 8.815 1.954 1.087 5.602 2.199 8.334 2.541 2.823 0.3526 44.22 0.357 47.1 5e-3z" fill="#175431"/>
  <path d="m98.26 196.3c-1.859-1.331-6.159-3.631-9.175-4.91-6.222-2.637-12.75-4.472-24.29-6.833-8.562-1.751-11.89-2.624-14.84-3.898-7.397-3.19-13.07-9.44-15.68-17.28-1.578-4.743-1.462-0.6553-1.621-56.75l-0.1455-51.33-0.7146-2.596c-0.393-1.428-1.144-3.571-1.668-4.762-0.5246-1.191-1.019-2.315-1.098-2.497-0.1148-0.2641 14.09-0.3307 70.53-0.3307 38.87 0 70.67 0.04467 70.67 0.09926s-0.4082 0.995-0.9071 2.09c-0.4989 1.095-1.157 2.799-1.462 3.788-1.368 4.43-1.332 2.935-1.335 55.54-3e-3 53.61 0.0567 51.46-1.57 56.51-1.529 4.744-3.513 7.998-7.015 11.5-2.786 2.79-5.352 4.558-8.72 6.011-2.985 1.287-6.366 2.177-14.84 3.903-16.5 3.361-25.05 6.303-32.75 11.27-0.9868 0.6363-1.939 1.151-2.117 1.144-0.1774-7e-3 -0.7392-0.3112-1.249-0.6757zm5.953-7.795c7.061-3.557 14-5.81 25.18-8.177 3.465-0.7334 7.729-1.637 9.475-2.009 8.502-1.809 13.18-4.24 16.99-8.834 1.703-2.052 3.796-6.184 4.63-9.141l0.5967-2.117 0.1483-51.2 0.1483-51.2 0.5791-2.514c0.3185-1.382 0.5806-2.603 0.5826-2.712 2e-3 -0.1091-28.35-0.1984-63-0.1984h-63l0.1887 0.7276c1.049 4.046 1.015 2.417 1.176 55.89l0.1544 51.2 0.5981 2.117c1.791 6.337 5.837 11.59 11.17 14.5 3.415 1.865 5.711 2.534 15.61 4.55 14.27 2.906 21.77 5.214 29.19 8.984 2.646 1.345 4.871 2.433 4.944 2.418 0.0728-0.0156 2.156-1.048 4.63-2.294zm-12.61-46.48c4.267-0.0409 11.17-0.0409 15.35 7e-5 4.173 0.0409 0.6823 0.0744-7.758 0.0743-8.44-4e-5 -11.85-0.0335-7.588-0.0744zm43.14-26.46c-0.3291-0.4196-0.3198-0.429 0.0999-0.0999 0.4407 0.3456 0.5809 0.5629 0.3631 0.5629-0.0549 0-0.2633-0.2084-0.463-0.463zm-70.23-2.778-0.7771-0.8599 0.8599 0.7771c0.8016 0.7244 0.9815 0.9427 0.7771 0.9427-0.0455 0-0.4325-0.387-0.8599-0.8599zm17.99-18.19c0-2.692 0.0393-3.793 0.0873-2.447s0.048 3.549 0 4.895-0.0873 0.2447-0.0873-2.447zm9.481-7.342c3.893-0.04124 10.26-0.04124 14.16 0 3.893 0.04124 0.7078 0.07497-7.078 0.07497-7.785 0-10.97-0.03374-7.078-0.07497zm-27.45-10.91c0.2634-0.291 0.5384-0.5292 0.6112-0.5292 0.0728 0-0.0832 0.2381-0.3466 0.5292-0.2634 0.291-0.5384 0.5292-0.6112 0.5292-0.0728 0 0.0832-0.2381 0.3466-0.5292z" fill="#f7c02d"/>
  <path d="m207.3 200.8h594.9" fill="none" stroke="#fec52e" stroke-width="5"/>
  <g fill="#fff" stroke-width=".2646" aria-label="SOUTHEASTERN">
   <path d="m238.2 79.49v-5.522q0-0.8678-0.3945-1.183-0.3156-0.3945-1.183-0.3945h-13.57q-0.8678 0-1.262 0.3945-0.3156 0.3156-0.3156 1.183v5.996q0 1.262 0.5522 1.815 0.5522 0.4734 2.13 0.8678l14.67 3.156q5.68 1.183 8.52 3.787 2.84 2.525 2.84 7.574v9.151q0 11.04-11.04 11.04h-18.15q-11.04 0-11.04-11.04v-6.942h11.04v6.154q0 0.8678 0.3156 1.262 0.3945 0.3156 1.262 0.3156h14.67q0.8678 0 1.183-0.3156 0.3945-0.3945 0.3945-1.262v-6.627q0-1.262-0.5522-1.736-0.5522-0.5522-2.13-0.9467l-14.67-3.156q-5.68-1.183-8.52-3.708-2.84-2.603-2.84-7.653v-8.52q0-11.04 11.04-11.04h17.04q11.04 0 11.04 11.04v6.311z"/>
   <path d="m291 117.4h-20.28q-11.04 0-11.04-11.04v-33.13q0-11.04 11.04-11.04h20.28q11.04 0 11.04 11.04v33.13q0 11.04-11.04 11.04zm-19.96-43.23v31.24q0 0.8678 0.3156 1.262 0.3945 0.3156 1.262 0.3156h16.49q0.8678 0 1.183-0.3156 0.3944-0.3945 0.3944-1.262v-31.24q0-0.8678-0.3944-1.183-0.3156-0.3945-1.183-0.3945h-16.49q-0.8678 0-1.262 0.3945-0.3156 0.3156-0.3156 1.183z"/>
   <path d="m353.9 62.14v44.18q0 11.04-11.04 11.04h-19.25q-11.04 0-11.04-11.04v-44.18h11.36v43.23q0 0.8678 0.3156 1.262 0.3945 0.3156 1.262 0.3156h15.46q0.8678 0 1.183-0.3156 0.3945-0.3945 0.3945-1.262v-43.23z"/>
   <path d="m402.9 72.39h-14.99v44.97h-11.36v-44.97h-14.99v-10.26h41.34z"/>
   <path d="m411.1 117.4v-55.22h11.36v21.77h19.57v-21.77h11.36v55.22h-11.36v-23.04h-19.57v23.04z"/>
   <path d="m465.9 62.14h37.16v10.41h-25.8v11.44h20.91v10.26h-20.91v12.7h25.8v10.41h-37.16z"/>
   <path d="m542.4 105.4h-18.93l-3.392 11.99h-11.99l16.8-55.22h16.57l16.8 55.22h-12.46zm-2.919-10.41-6.548-23.19-6.548 23.19z"/>
   <path d="m591.4 79.49v-5.522q0-0.8678-0.3945-1.183-0.3156-0.3945-1.183-0.3945h-13.57q-0.8678 0-1.262 0.3945-0.3156 0.3156-0.3156 1.183v5.996q0 1.262 0.5522 1.815 0.5522 0.4734 2.13 0.8678l14.67 3.156q5.68 1.183 8.52 3.787 2.84 2.525 2.84 7.574v9.151q0 11.04-11.04 11.04h-18.15q-11.04 0-11.04-11.04v-6.942h11.04v6.154q0 0.8678 0.3156 1.262 0.3945 0.3156 1.262 0.3156h14.67q0.8678 0 1.183-0.3156 0.3945-0.3945 0.3945-1.262v-6.627q0-1.262-0.5522-1.736-0.5522-0.5522-2.13-0.9467l-14.67-3.156q-5.68-1.183-8.52-3.708-2.84-2.603-2.84-7.653v-8.52q0-11.04 11.04-11.04h17.04q11.04 0 11.04 11.04v6.311z"/>
   <path d="m650.5 72.39h-14.99v44.97h-11.36v-44.97h-14.99v-10.26h41.34z"/>
   <path d="m658.7 62.14h37.16v10.41h-25.8v11.44h20.91v10.26h-20.91v12.7h25.8v10.41h-37.16z"/>
   <path d="m747.8 117.4h-12.23l-9.151-19.49h-9.151v19.49h-11.36v-55.22h29.11q11.04 0 11.04 11.04v13.33q0 9.309-7.652 10.73zm-30.53-29.58h15.86q0.8678 0 1.183-0.3156 0.3945-0.3945 0.3945-1.262v-12.23q0-0.8678-0.3945-1.183-0.3156-0.3945-1.183-0.3945h-15.86z"/>
   <path d="m789.9 62.14h11.04v55.22h-11.04l-21.7-36.84v36.84h-11.04v-55.22h11.83l20.91 35.58z"/>
  </g>
  <g fill="#fff" stroke-width=".2646" aria-label="LOUISIANA UNIVERSITY">
   <path d="m206.9 134.3h6.662v26.28h13.97v6.107h-20.64z"/>
   <path d="m254.6 166.7h-11.89q-6.477 0-6.477-6.477v-19.43q0-6.477 6.477-6.477h11.89q6.477 0 6.477 6.477v19.43q0 6.477-6.477 6.477zm-11.71-25.35v18.32q0 0.5089 0.1851 0.7403 0.2313 0.1851 0.7403 0.1851h9.67q0.5089 0 0.694-0.1851 0.2313-0.2313 0.2313-0.7403v-18.32q0-0.5089-0.2313-0.694-0.1851-0.2313-0.694-0.2313h-9.67q-0.5089 0-0.7403 0.2313-0.1851 0.1851-0.1851 0.694z"/>
   <path d="m294.7 134.3v25.91q0 6.477-6.477 6.477h-11.29q-6.477 0-6.477-6.477v-25.91h6.662v25.35q0 0.5089 0.1851 0.7403 0.2313 0.1851 0.7403 0.1851h9.068q0.5089 0 0.694-0.1851 0.2313-0.2313 0.2313-0.7403v-25.35z"/>
   <path d="m307.5 166.7v-32.39h6.662v32.39z"/>
   <path d="m341.1 144.5v-3.239q0-0.5089-0.2313-0.694-0.1851-0.2313-0.694-0.2313h-7.958q-0.5089 0-0.7403 0.2313-0.1851 0.1851-0.1851 0.694v3.516q0 0.7403 0.3239 1.064 0.3239 0.2776 1.249 0.5089l8.606 1.851q3.331 0.694 4.997 2.221 1.666 1.481 1.666 4.442v5.367q0 6.477-6.477 6.477h-10.64q-6.477 0-6.477-6.477v-4.072h6.477v3.609q0 0.5089 0.1851 0.7403 0.2313 0.1851 0.7403 0.1851h8.606q0.5089 0 0.694-0.1851 0.2313-0.2313 0.2313-0.7403v-3.886q0-0.7403-0.3239-1.018-0.3239-0.3239-1.249-0.5552l-8.606-1.851q-3.331-0.694-4.997-2.175-1.666-1.527-1.666-4.488v-4.997q0-6.477 6.477-6.477h9.994q6.477 0 6.477 6.477v3.701z"/>
   <path d="m358.9 166.7v-32.39h6.662v32.39z"/>
   <path d="m395 159.6h-11.1l-1.989 7.033h-7.033l9.855-32.39h9.716l9.855 32.39h-7.31zm-1.712-6.107-3.84-13.6-3.84 13.6z"/>
   <path d="m431 134.3h6.477v32.39h-6.477l-12.72-21.61v21.61h-6.477v-32.39h6.94l12.26 20.87z"/>
   <path d="m467 159.6h-11.1l-1.989 7.033h-7.033l9.855-32.39h9.716l9.855 32.39h-7.31zm-1.712-6.107-3.84-13.6-3.84 13.6z"/>
   <path d="m526.9 134.3v25.91q0 6.477-6.477 6.477h-11.29q-6.477 0-6.477-6.477v-25.91h6.662v25.35q0 0.5089 0.1851 0.7403 0.2313 0.1851 0.7403 0.1851h9.068q0.5089 0 0.694-0.1851 0.2313-0.2313 0.2313-0.7403v-25.35z"/>
   <path d="m557.5 134.3h6.477v32.39h-6.477l-12.72-21.61v21.61h-6.477v-32.39h6.94l12.26 20.87z"/>
   <path d="m574.9 166.7v-32.39h6.662v32.39z"/>
   <path d="m619.7 134.3-10.04 32.39h-7.773l-10.04-32.39h7.31l6.709 25.03 6.709-25.03z"/>
   <path d="m629.1 134.3h21.79v6.107h-15.13v6.709h12.26v6.015h-12.26v7.449h15.13v6.107h-21.79z"/>
   <path d="m685.4 166.7h-7.171l-5.367-11.43h-5.367v11.43h-6.662v-32.39h17.07q6.477 0 6.477 6.477v7.819q0 5.46-4.488 6.292zm-17.91-17.35h9.3q0.5089 0 0.694-0.1851 0.2313-0.2313 0.2313-0.7403v-7.171q0-0.5089-0.2313-0.694-0.1851-0.2313-0.694-0.2313h-9.3z"/>
   <path d="m710.5 144.5v-3.239q0-0.5089-0.2313-0.694-0.1851-0.2313-0.694-0.2313h-7.958q-0.5089 0-0.7403 0.2313-0.1851 0.1851-0.1851 0.694v3.516q0 0.7403 0.3239 1.064 0.3239 0.2776 1.249 0.5089l8.606 1.851q3.331 0.694 4.997 2.221 1.666 1.481 1.666 4.442v5.367q0 6.477-6.477 6.477h-10.64q-6.477 0-6.477-6.477v-4.072h6.477v3.609q0 0.5089 0.1851 0.7403 0.2313 0.1851 0.7403 0.1851h8.606q0.5089 0 0.694-0.1851 0.2313-0.2313 0.2313-0.7403v-3.886q0-0.7403-0.3239-1.018-0.3239-0.3239-1.249-0.5552l-8.606-1.851q-3.331-0.694-4.997-2.175-1.666-1.527-1.666-4.488v-4.997q0-6.477 6.477-6.477h9.994q6.477 0 6.477 6.477v3.701z"/>
   <path d="m727.4 166.7v-32.39h6.662v32.39z"/>
   <path d="m768.1 140.3h-8.791v26.37h-6.662v-26.37h-8.791v-6.015h24.24z"/>
   <path d="m792.5 166.7h-6.662v-11.06l-10.55-21.33h7.218l6.709 14.44 6.709-14.44h7.125l-10.55 21.33z"/>
  </g>
 </g>
</svg>
