<svg width="183.67mm" height="177.18mm" version="1.1" viewBox="0 0 183.67 177.18" xmlns="http://www.w3.org/2000/svg">
 <g transform="translate(-7.7478 -34.617)">
  <rect x="49.894" y="62.62" width="98.627" height="102.21" fill="#fff" stroke-linecap="round" stroke-linejoin="round" stroke-width="1.3" style="paint-order:markers stroke fill"/>
  <path d="m96.939 209.21c-2.9298-2.952-5.5135-4.7492-9.9218-6.9019-5.7497-2.8077-12.082-4.6868-24.077-7.1454-11.447-2.3462-14.609-3.2602-19.236-5.5612-10.87-5.4044-18.231-15.083-20.826-27.381-0.30622-1.4515-0.66262-3.7702-0.79201-5.1527s-0.2482-24.435-0.26402-51.229c-0.0279-47.157-0.0451-48.779-0.53785-50.706-2.6656-7.602-9.6114-15.199-13.536-20.435 61.664-0.13701 122.35-0.08933 183.67 0l-5.7037 7.6184c-3.137 4.1901-6.0681 8.3402-6.5134 9.2224-0.44535 0.88222-1.0391 2.501-1.3195 3.5972-0.49373 1.9304-0.51065 3.5265-0.53761 50.706-0.0161 28.187-0.13287 49.827-0.2771 51.358-0.29317 3.1119-1.3289 7.9457-2.2653 10.573-3.7811 10.607-12.029 19.141-22.5 23.279-3.0953 1.2232-7.6959 2.4006-16.075 4.1141-18.806 3.8455-27.367 7.3927-34.257 14.194-1.3801 1.3623-2.5117 2.4557-2.5146 2.4298-3e-3 -0.0259-1.1364-1.1868-2.5189-2.5797zm26.062-51.112c3.0088-0.36871 6.405-1.3466 8.4554-2.4346 2.373-1.2592 4.6382-3.6186 5.7638-6.0033 1.6217-3.4361 1.6558-3.7631 1.6558-15.875 0-10.805-0.01-11.008-0.61228-12.7-2.0406-5.7317-6.9237-9.2628-15.924-11.515-1.3824-0.34598-7.0379-1.4035-12.568-2.3501-5.5298-0.94658-13.258-2.2686-17.174-2.9379s-7.4977-1.3746-7.9592-1.5674-1.0972-0.67875-1.4127-1.0798c-0.55122-0.70077-0.57359-0.97023-0.57359-6.9112 0-5.8292 0.0302-6.2122 0.52917-6.7112 0.51701-0.51701 0.88194-0.52917 15.887-0.52917h15.358l0.64943 0.64943c0.6018 0.6018 0.64943 0.84099 0.64943 3.2611v2.6117l9.7234 1.6452c5.3479 0.90486 10.17 1.7151 10.716 1.8006l0.99219 0.15539v-5.8666c0-6.8126-0.31095-8.9057-1.7724-11.93-2.3372-4.8364-7.1649-7.6059-14.728-8.4493-3.3001-0.36798-40.43-0.37662-43.692-0.01017-9.7915 1.0998-15.087 5.5377-16.271 13.636-0.20495 1.4017-0.27603 5.2087-0.21216 11.364 0.0919 8.858 0.12225 9.3301 0.70535 10.976 1.4623 4.1272 3.9258 6.7138 8.6341 9.0653 4.1862 2.0908 6.2768 2.5689 25.665 5.8693 17.795 3.0292 18.712 3.2016 19.669 3.6968 1.7085 0.88352 1.7618 1.1384 1.7618 8.434v6.5834l-0.62463 0.50579c-0.59997 0.48583-1.2713 0.50579-17.012 0.50579h-16.387l-0.64943-0.64943c-0.60978-0.60978-0.64943-0.82486-0.64943-3.5226v-2.8731l-10.253-1.7906c-5.6389-0.98484-10.473-1.8522-10.741-1.9274-0.46862-0.13112-0.48368 0.15513-0.36673 6.9668 0.0935 5.4464 0.22069 7.4403 0.54518 8.5468 1.1378 3.8799 3.5503 7.0107 6.7925 8.8147 1.9544 1.0875 5.6017 2.1993 8.3344 2.5407 2.8231 0.35262 44.223 0.357 47.096 5e-3z" fill="#175431"/>
  <path d="m98.262 196.34c-1.8591-1.3306-6.1591-3.6315-9.1751-4.9096-6.2225-2.637-12.746-4.4719-24.295-6.833-8.5624-1.7506-11.887-2.6238-14.842-3.8983-7.3972-3.1904-13.067-9.4397-15.675-17.278-1.5783-4.7428-1.4616-0.65533-1.6206-56.748l-0.14551-51.329-0.71456-2.5964c-0.39301-1.428-1.1438-3.5711-1.6685-4.7625-0.52464-1.1914-1.0186-2.3149-1.0976-2.4968-0.11479-0.26412 14.09-0.33073 70.528-0.33073 38.87 0 70.672 0.04467 70.672 0.09926s-0.40819 0.99498-0.9071 2.0898c-0.49891 1.0948-1.157 2.7994-1.4623 3.7881-1.3684 4.4302-1.3324 2.9353-1.3352 55.538-3e-3 53.608 0.0567 51.463-1.5701 56.511-1.529 4.7437-3.5133 7.9979-7.0147 11.504-2.7864 2.79-5.3517 4.5585-8.7196 6.011-2.9849 1.2874-6.3663 2.1766-14.842 3.9032-16.497 3.3606-25.049 6.3035-32.75 11.269-0.9868 0.6363-1.9393 1.1511-2.1167 1.1439-0.17736-7e-3 -0.7392-0.31121-1.2485-0.67573zm5.9531-7.7945c7.0612-3.5566 14.002-5.8103 25.185-8.1772 3.4652-0.73345 7.7292-1.6375 9.4754-2.009 8.5021-1.8086 13.179-4.2403 16.992-8.8339 1.7035-2.0524 3.7959-6.184 4.6296-9.1414l0.5967-2.1167 0.14833-51.197 0.14832-51.197 0.57907-2.5135c0.3185-1.3824 0.58065-2.6028 0.58256-2.712 2e-3 -0.10914-28.346-0.19844-62.996-0.19844h-63l0.18866 0.7276c1.049 4.0459 1.0148 2.4175 1.1761 55.893l0.1544 51.197 0.59806 2.1167c1.7906 6.3373 5.8368 11.592 11.169 14.504 3.4151 1.8652 5.711 2.5344 15.61 4.5499 14.272 2.9057 21.77 5.2138 29.187 8.9839 2.6465 1.3452 4.8714 2.4332 4.9441 2.4176 0.0728-0.0156 2.1564-1.0478 4.6302-2.2938zm-12.615-46.484c4.2669-0.0409 11.172-0.0409 15.346 7e-5 4.1733 0.0409 0.68226 0.0744-7.758 0.0743-8.4402-4e-5 -11.855-0.0335-7.5879-0.0744zm43.141-26.458c-0.32911-0.41964-0.31975-0.429 0.0999-0.0999 0.44073 0.34564 0.58089 0.56291 0.36312 0.56291-0.0549 0-0.2633-0.20836-0.46302-0.46302zm-70.23-2.7781-0.7771-0.8599 0.85989 0.77711c0.80155 0.72437 0.98151 0.94268 0.77711 0.94268-0.0455 0-0.43249-0.38695-0.8599-0.85989zm17.986-18.19c0-2.6921 0.0393-3.7935 0.0873-2.4474s0.048 3.5487 0 4.8948-0.0873 0.24474-0.0873-2.4474zm9.4813-7.342c3.8927-0.04124 10.263-0.04124 14.155 0 3.8927 0.04124 0.70776 0.07497-7.0776 0.07497-7.7854 0-10.97-0.03374-7.0776-0.07497zm-27.451-10.914c0.26339-0.29104 0.53842-0.52917 0.61118-0.52917 0.0728 0-0.0832 0.23812-0.3466 0.52917-0.26339 0.29104-0.53842 0.52917-0.61118 0.52917-0.0728 0 0.0832-0.23812 0.3466-0.52917z" fill="#f7c02d"/>
 </g>
</svg>
